# xmcd
#
# Track frame offsets: 
#        150
#        13932
#        23855
#        40015
#        51197
#        65677
#        89115
#        100445
#        108977
#        122437
#
# Disc length: 1759 seconds
#
# Revision: 0
# Processed by: cddbd v1.5.1PL0 Copyright (c) Steve Scherf et al.
# Submitted via: ExactAudioCopy v0.95a5
#
DISCID=8606dd0a
DTITLE=Jesus Chords - Country Is A Four-letter Word - Gosh!
DYEAR=2004
DGENRE=Country
TTITLE0=Somedays
TTITLE1=How I Know The Lie
TTITLE2=Country Free
TTITLE3=OK, You Win
TTITLE4=Saltwater In My Coffee
TTITLE5=In My Next Life
TTITLE6=Bottles
TTITLE7=777
TTITLE8=Jailfood
TTITLE9=Omen
EXTD=
EXTT0=
EXTT1=
EXTT2=
EXTT3=
EXTT4=
EXTT5=
EXTT6=
EXTT7=
EXTT8=
EXTT9=
PLAYORDER=
